<svg width="40" height="40" viewBox="0 0 40 40" fill="none" xmlns="http://www.w3.org/2000/svg">
<g clip-path="url(#clip0_4_181)">
<path d="M20 23.5405C21.3 23.5405 21.3 18.0109 21.3 17.3243C21.3 16.6377 20.718 16.0811 20 16.0811C19.282 16.0811 18.7 16.6377 18.7 17.3243C18.7 18.0109 18.7 23.5405 20 23.5405Z" fill="#DC3545"/>
<path d="M20 27.2703C20.718 27.2703 21.3 26.7137 21.3 26.027C21.3 25.3404 20.718 24.7838 20 24.7838C19.282 24.7838 18.7 25.3404 18.7 26.027C18.7 26.7137 19.282 27.2703 20 27.2703Z" fill="#DC3545"/>
<path fill-rule="evenodd" clip-rule="evenodd" d="M21.1413 8.64791C20.9135 8.24851 20.4757 8 20 8C19.5243 8 19.0865 8.24851 18.8587 8.64791L7.15874 29.1614C6.93903 29.5466 6.94792 30.0141 7.18213 30.3914C7.41634 30.7687 7.84118 31 8.3 31H31.7C32.1588 31 32.5837 30.7687 32.8179 30.3914C33.0521 30.0141 33.061 29.5466 32.8413 29.1614L21.1413 8.64791ZM20 11L30 29H10L20 11Z" fill="#DC3545"/>
</g>
<defs>
<clipPath id="clip0_4_181">
<rect width="26" height="23" fill="white" transform="translate(7 8)"/>
</clipPath>
</defs>
</svg>
